<mxfile host="app.diagrams.net" modified="2021-01-04T16:20:27.445Z" agent="5.0 (Windows NT 6.2; Win64; x64) AppleWebKit/537.36 (KHTML, like Gecko) Chrome/88.0.4324.50 Safari/537.36 Edg/88.0.705.29" etag="xUtTIR_jbJL5LWzeCkTZ" version="14.1.8" type="github">
  <diagram id="wzFjB75fQvuYZE3Tel6x" name="Page-1">
    <mxGraphModel dx="1550" dy="836" grid="1" gridSize="10" guides="1" tooltips="1" connect="1" arrows="1" fold="1" page="1" pageScale="1" pageWidth="850" pageHeight="1100" math="0" shadow="0">
      <root>
        <mxCell id="0" />
        <mxCell id="1" parent="0" />
        <mxCell id="-PQl0ZOVKivpwWdPvfa4-2" style="edgeStyle=orthogonalEdgeStyle;rounded=0;orthogonalLoop=1;jettySize=auto;html=1;" edge="1" parent="1" source="-PQl0ZOVKivpwWdPvfa4-1" target="-PQl0ZOVKivpwWdPvfa4-3">
          <mxGeometry relative="1" as="geometry">
            <mxPoint x="425" y="170" as="targetPoint" />
          </mxGeometry>
        </mxCell>
        <mxCell id="-PQl0ZOVKivpwWdPvfa4-1" value="Start BJ game" style="ellipse;whiteSpace=wrap;html=1;aspect=fixed;" vertex="1" parent="1">
          <mxGeometry x="385" y="20" width="80" height="80" as="geometry" />
        </mxCell>
        <mxCell id="-PQl0ZOVKivpwWdPvfa4-53" value="" style="edgeStyle=orthogonalEdgeStyle;rounded=0;orthogonalLoop=1;jettySize=auto;html=1;" edge="1" parent="1" source="-PQl0ZOVKivpwWdPvfa4-3" target="-PQl0ZOVKivpwWdPvfa4-52">
          <mxGeometry relative="1" as="geometry" />
        </mxCell>
        <mxCell id="-PQl0ZOVKivpwWdPvfa4-3" value="Do you want to play" style="rhombus;whiteSpace=wrap;html=1;" vertex="1" parent="1">
          <mxGeometry x="375" y="130" width="100" height="90" as="geometry" />
        </mxCell>
        <mxCell id="-PQl0ZOVKivpwWdPvfa4-7" value="" style="edgeStyle=orthogonalEdgeStyle;rounded=0;orthogonalLoop=1;jettySize=auto;html=1;" edge="1" parent="1" source="-PQl0ZOVKivpwWdPvfa4-5" target="-PQl0ZOVKivpwWdPvfa4-6">
          <mxGeometry relative="1" as="geometry" />
        </mxCell>
        <mxCell id="-PQl0ZOVKivpwWdPvfa4-10" value="" style="edgeStyle=orthogonalEdgeStyle;rounded=0;orthogonalLoop=1;jettySize=auto;html=1;" edge="1" parent="1" source="-PQl0ZOVKivpwWdPvfa4-6" target="-PQl0ZOVKivpwWdPvfa4-9">
          <mxGeometry relative="1" as="geometry" />
        </mxCell>
        <mxCell id="-PQl0ZOVKivpwWdPvfa4-6" value="Deal two cards to the player" style="whiteSpace=wrap;html=1;rounded=1;" vertex="1" parent="1">
          <mxGeometry x="365" y="360" width="120" height="40" as="geometry" />
        </mxCell>
        <mxCell id="-PQl0ZOVKivpwWdPvfa4-11" style="edgeStyle=orthogonalEdgeStyle;rounded=0;orthogonalLoop=1;jettySize=auto;html=1;" edge="1" parent="1" source="-PQl0ZOVKivpwWdPvfa4-9" target="-PQl0ZOVKivpwWdPvfa4-12">
          <mxGeometry relative="1" as="geometry">
            <mxPoint x="425" y="590" as="targetPoint" />
          </mxGeometry>
        </mxCell>
        <mxCell id="-PQl0ZOVKivpwWdPvfa4-9" value="Show one dealer card" style="whiteSpace=wrap;html=1;rounded=1;" vertex="1" parent="1">
          <mxGeometry x="365" y="440" width="120" height="40" as="geometry" />
        </mxCell>
        <mxCell id="-PQl0ZOVKivpwWdPvfa4-14" value="" style="edgeStyle=orthogonalEdgeStyle;rounded=0;orthogonalLoop=1;jettySize=auto;html=1;" edge="1" parent="1" source="-PQl0ZOVKivpwWdPvfa4-12" target="-PQl0ZOVKivpwWdPvfa4-13">
          <mxGeometry relative="1" as="geometry" />
        </mxCell>
        <mxCell id="-PQl0ZOVKivpwWdPvfa4-12" value="Show both players cards and the curent score" style="rounded=1;whiteSpace=wrap;html=1;" vertex="1" parent="1">
          <mxGeometry x="365" y="520" width="120" height="40" as="geometry" />
        </mxCell>
        <mxCell id="-PQl0ZOVKivpwWdPvfa4-17" value="Hit" style="edgeStyle=orthogonalEdgeStyle;rounded=0;orthogonalLoop=1;jettySize=auto;html=1;" edge="1" parent="1" source="-PQl0ZOVKivpwWdPvfa4-13">
          <mxGeometry relative="1" as="geometry">
            <mxPoint x="290" y="690" as="targetPoint" />
            <Array as="points">
              <mxPoint x="290" y="650" />
              <mxPoint x="290" y="680" />
            </Array>
          </mxGeometry>
        </mxCell>
        <mxCell id="-PQl0ZOVKivpwWdPvfa4-25" value="Stand" style="edgeStyle=orthogonalEdgeStyle;rounded=0;orthogonalLoop=1;jettySize=auto;html=1;" edge="1" parent="1" source="-PQl0ZOVKivpwWdPvfa4-13">
          <mxGeometry x="-0.6" y="10" relative="1" as="geometry">
            <mxPoint x="540" y="650" as="targetPoint" />
            <mxPoint as="offset" />
          </mxGeometry>
        </mxCell>
        <mxCell id="-PQl0ZOVKivpwWdPvfa4-13" value="Hit or stand?" style="rhombus;whiteSpace=wrap;html=1;rounded=1;" vertex="1" parent="1">
          <mxGeometry x="385" y="610" width="80" height="80" as="geometry" />
        </mxCell>
        <mxCell id="-PQl0ZOVKivpwWdPvfa4-19" style="edgeStyle=orthogonalEdgeStyle;rounded=0;orthogonalLoop=1;jettySize=auto;html=1;" edge="1" parent="1" source="-PQl0ZOVKivpwWdPvfa4-18" target="-PQl0ZOVKivpwWdPvfa4-20">
          <mxGeometry relative="1" as="geometry">
            <mxPoint x="290" y="770" as="targetPoint" />
          </mxGeometry>
        </mxCell>
        <mxCell id="-PQl0ZOVKivpwWdPvfa4-18" value="Deal another card" style="rounded=1;whiteSpace=wrap;html=1;" vertex="1" parent="1">
          <mxGeometry x="230" y="690" width="120" height="40" as="geometry" />
        </mxCell>
        <mxCell id="-PQl0ZOVKivpwWdPvfa4-22" value="" style="edgeStyle=orthogonalEdgeStyle;rounded=0;orthogonalLoop=1;jettySize=auto;html=1;" edge="1" parent="1" source="-PQl0ZOVKivpwWdPvfa4-20" target="-PQl0ZOVKivpwWdPvfa4-21">
          <mxGeometry relative="1" as="geometry" />
        </mxCell>
        <mxCell id="-PQl0ZOVKivpwWdPvfa4-20" value="Calculate the score" style="rounded=1;whiteSpace=wrap;html=1;" vertex="1" parent="1">
          <mxGeometry x="230" y="760" width="120" height="40" as="geometry" />
        </mxCell>
        <mxCell id="-PQl0ZOVKivpwWdPvfa4-40" value="" style="edgeStyle=orthogonalEdgeStyle;rounded=0;orthogonalLoop=1;jettySize=auto;html=1;" edge="1" parent="1" source="-PQl0ZOVKivpwWdPvfa4-21">
          <mxGeometry relative="1" as="geometry">
            <mxPoint x="290" y="940" as="targetPoint" />
          </mxGeometry>
        </mxCell>
        <mxCell id="-PQl0ZOVKivpwWdPvfa4-21" value="Show the cards and the score" style="whiteSpace=wrap;html=1;rounded=1;" vertex="1" parent="1">
          <mxGeometry x="230" y="840" width="120" height="40" as="geometry" />
        </mxCell>
        <mxCell id="-PQl0ZOVKivpwWdPvfa4-33" value="Yes" style="edgeStyle=orthogonalEdgeStyle;rounded=0;orthogonalLoop=1;jettySize=auto;html=1;entryX=0;entryY=0.5;entryDx=0;entryDy=0;" edge="1" parent="1" source="-PQl0ZOVKivpwWdPvfa4-26" target="-PQl0ZOVKivpwWdPvfa4-32">
          <mxGeometry relative="1" as="geometry" />
        </mxCell>
        <mxCell id="-PQl0ZOVKivpwWdPvfa4-38" value="No" style="edgeStyle=orthogonalEdgeStyle;rounded=0;orthogonalLoop=1;jettySize=auto;html=1;" edge="1" parent="1" source="-PQl0ZOVKivpwWdPvfa4-26">
          <mxGeometry relative="1" as="geometry">
            <mxPoint x="585" y="740" as="targetPoint" />
          </mxGeometry>
        </mxCell>
        <mxCell id="-PQl0ZOVKivpwWdPvfa4-26" value="Dealer under 17?" style="rhombus;whiteSpace=wrap;html=1;" vertex="1" parent="1">
          <mxGeometry x="540" y="610" width="90" height="90" as="geometry" />
        </mxCell>
        <mxCell id="-PQl0ZOVKivpwWdPvfa4-45" value="" style="edgeStyle=orthogonalEdgeStyle;rounded=0;orthogonalLoop=1;jettySize=auto;html=1;" edge="1" parent="1" source="-PQl0ZOVKivpwWdPvfa4-32" target="-PQl0ZOVKivpwWdPvfa4-44">
          <mxGeometry relative="1" as="geometry" />
        </mxCell>
        <mxCell id="-PQl0ZOVKivpwWdPvfa4-32" value="Deal another card to the dealer" style="rounded=1;whiteSpace=wrap;html=1;" vertex="1" parent="1">
          <mxGeometry x="680" y="635" width="120" height="40" as="geometry" />
        </mxCell>
        <mxCell id="-PQl0ZOVKivpwWdPvfa4-41" value="No" style="edgeStyle=orthogonalEdgeStyle;rounded=0;orthogonalLoop=1;jettySize=auto;html=1;" edge="1" parent="1">
          <mxGeometry relative="1" as="geometry">
            <mxPoint x="420" y="600" as="targetPoint" />
            <mxPoint x="250" y="980" as="sourcePoint" />
            <Array as="points">
              <mxPoint x="160" y="980" />
            </Array>
          </mxGeometry>
        </mxCell>
        <mxCell id="-PQl0ZOVKivpwWdPvfa4-43" value="Yes" style="edgeStyle=orthogonalEdgeStyle;rounded=0;orthogonalLoop=1;jettySize=auto;html=1;exitX=0.5;exitY=1;exitDx=0;exitDy=0;" edge="1" parent="1" source="-PQl0ZOVKivpwWdPvfa4-39" target="-PQl0ZOVKivpwWdPvfa4-42">
          <mxGeometry relative="1" as="geometry">
            <mxPoint x="330" y="980" as="sourcePoint" />
          </mxGeometry>
        </mxCell>
        <mxCell id="-PQl0ZOVKivpwWdPvfa4-39" value="Score &amp;gt; 21" style="rhombus;whiteSpace=wrap;html=1;rounded=1;" vertex="1" parent="1">
          <mxGeometry x="250" y="940" width="80" height="80" as="geometry" />
        </mxCell>
        <mxCell id="-PQl0ZOVKivpwWdPvfa4-64" style="edgeStyle=orthogonalEdgeStyle;rounded=0;orthogonalLoop=1;jettySize=auto;html=1;entryX=0;entryY=0.5;entryDx=0;entryDy=0;" edge="1" parent="1" source="-PQl0ZOVKivpwWdPvfa4-42" target="-PQl0ZOVKivpwWdPvfa4-63">
          <mxGeometry relative="1" as="geometry">
            <Array as="points">
              <mxPoint x="340" y="1070" />
              <mxPoint x="340" y="1020" />
            </Array>
          </mxGeometry>
        </mxCell>
        <mxCell id="-PQl0ZOVKivpwWdPvfa4-42" value="Bust" style="whiteSpace=wrap;html=1;rounded=1;" vertex="1" parent="1">
          <mxGeometry x="250" y="1050" width="80" height="40" as="geometry" />
        </mxCell>
        <mxCell id="-PQl0ZOVKivpwWdPvfa4-46" value="No" style="edgeStyle=orthogonalEdgeStyle;rounded=0;orthogonalLoop=1;jettySize=auto;html=1;entryX=0.5;entryY=0;entryDx=0;entryDy=0;" edge="1" parent="1" source="-PQl0ZOVKivpwWdPvfa4-44" target="-PQl0ZOVKivpwWdPvfa4-26">
          <mxGeometry relative="1" as="geometry">
            <mxPoint x="580" y="550" as="targetPoint" />
            <Array as="points">
              <mxPoint x="820" y="775" />
              <mxPoint x="820" y="550" />
              <mxPoint x="585" y="550" />
            </Array>
          </mxGeometry>
        </mxCell>
        <mxCell id="-PQl0ZOVKivpwWdPvfa4-48" value="" style="edgeStyle=orthogonalEdgeStyle;rounded=0;orthogonalLoop=1;jettySize=auto;html=1;" edge="1" parent="1" source="-PQl0ZOVKivpwWdPvfa4-44" target="-PQl0ZOVKivpwWdPvfa4-47">
          <mxGeometry relative="1" as="geometry" />
        </mxCell>
        <mxCell id="-PQl0ZOVKivpwWdPvfa4-44" value="Dealer &amp;gt; 21" style="rhombus;whiteSpace=wrap;html=1;rounded=1;" vertex="1" parent="1">
          <mxGeometry x="700" y="735" width="80" height="80" as="geometry" />
        </mxCell>
        <mxCell id="-PQl0ZOVKivpwWdPvfa4-57" style="edgeStyle=orthogonalEdgeStyle;rounded=0;orthogonalLoop=1;jettySize=auto;html=1;entryX=1;entryY=0.5;entryDx=0;entryDy=0;" edge="1" parent="1" source="-PQl0ZOVKivpwWdPvfa4-47" target="-PQl0ZOVKivpwWdPvfa4-56">
          <mxGeometry relative="1" as="geometry" />
        </mxCell>
        <mxCell id="-PQl0ZOVKivpwWdPvfa4-47" value="Dealer Bust" style="whiteSpace=wrap;html=1;rounded=1;" vertex="1" parent="1">
          <mxGeometry x="680" y="905" width="120" height="35" as="geometry" />
        </mxCell>
        <mxCell id="-PQl0ZOVKivpwWdPvfa4-55" value="No" style="edgeStyle=orthogonalEdgeStyle;rounded=0;orthogonalLoop=1;jettySize=auto;html=1;" edge="1" parent="1" source="-PQl0ZOVKivpwWdPvfa4-50">
          <mxGeometry relative="1" as="geometry">
            <mxPoint x="585" y="870" as="targetPoint" />
          </mxGeometry>
        </mxCell>
        <mxCell id="-PQl0ZOVKivpwWdPvfa4-59" value="Yes" style="edgeStyle=orthogonalEdgeStyle;rounded=0;orthogonalLoop=1;jettySize=auto;html=1;" edge="1" parent="1" source="-PQl0ZOVKivpwWdPvfa4-50" target="-PQl0ZOVKivpwWdPvfa4-58">
          <mxGeometry relative="1" as="geometry" />
        </mxCell>
        <mxCell id="-PQl0ZOVKivpwWdPvfa4-50" value="Dscore &amp;gt; Pscore" style="rhombus;whiteSpace=wrap;html=1;" vertex="1" parent="1">
          <mxGeometry x="545" y="740" width="80" height="80" as="geometry" />
        </mxCell>
        <mxCell id="-PQl0ZOVKivpwWdPvfa4-5" value="Deal two cards to the dealer" style="rounded=1;whiteSpace=wrap;html=1;" vertex="1" parent="1">
          <mxGeometry x="365" y="260" width="120" height="60" as="geometry" />
        </mxCell>
        <mxCell id="-PQl0ZOVKivpwWdPvfa4-51" value="Yes" style="edgeStyle=orthogonalEdgeStyle;rounded=0;orthogonalLoop=1;jettySize=auto;html=1;" edge="1" parent="1" source="-PQl0ZOVKivpwWdPvfa4-3" target="-PQl0ZOVKivpwWdPvfa4-5">
          <mxGeometry relative="1" as="geometry">
            <mxPoint x="425" y="320" as="targetPoint" />
            <mxPoint x="425" y="240" as="sourcePoint" />
          </mxGeometry>
        </mxCell>
        <mxCell id="-PQl0ZOVKivpwWdPvfa4-52" value="End the game" style="whiteSpace=wrap;html=1;" vertex="1" parent="1">
          <mxGeometry x="545" y="145" width="120" height="60" as="geometry" />
        </mxCell>
        <mxCell id="-PQl0ZOVKivpwWdPvfa4-56" value="You win" style="ellipse;whiteSpace=wrap;html=1;aspect=fixed;" vertex="1" parent="1">
          <mxGeometry x="545" y="870" width="80" height="80" as="geometry" />
        </mxCell>
        <mxCell id="-PQl0ZOVKivpwWdPvfa4-61" value="Yes" style="edgeStyle=orthogonalEdgeStyle;rounded=0;orthogonalLoop=1;jettySize=auto;html=1;entryX=0.5;entryY=0;entryDx=0;entryDy=0;" edge="1" parent="1" source="-PQl0ZOVKivpwWdPvfa4-58" target="-PQl0ZOVKivpwWdPvfa4-60">
          <mxGeometry relative="1" as="geometry" />
        </mxCell>
        <mxCell id="-PQl0ZOVKivpwWdPvfa4-62" value="No" style="edgeStyle=orthogonalEdgeStyle;rounded=0;orthogonalLoop=1;jettySize=auto;html=1;" edge="1" parent="1" source="-PQl0ZOVKivpwWdPvfa4-58">
          <mxGeometry relative="1" as="geometry">
            <mxPoint x="390" y="980" as="targetPoint" />
            <Array as="points">
              <mxPoint x="400" y="780" />
              <mxPoint x="400" y="980" />
            </Array>
          </mxGeometry>
        </mxCell>
        <mxCell id="-PQl0ZOVKivpwWdPvfa4-58" value="Dscore = Pscore" style="rhombus;whiteSpace=wrap;html=1;" vertex="1" parent="1">
          <mxGeometry x="420" y="740" width="80" height="80" as="geometry" />
        </mxCell>
        <mxCell id="-PQl0ZOVKivpwWdPvfa4-60" value="Draw" style="ellipse;whiteSpace=wrap;html=1;aspect=fixed;" vertex="1" parent="1">
          <mxGeometry x="420" y="870" width="80" height="80" as="geometry" />
        </mxCell>
        <mxCell id="-PQl0ZOVKivpwWdPvfa4-63" value="Dealer win" style="ellipse;whiteSpace=wrap;html=1;aspect=fixed;" vertex="1" parent="1">
          <mxGeometry x="360" y="980" width="80" height="80" as="geometry" />
        </mxCell>
      </root>
    </mxGraphModel>
  </diagram>
</mxfile>
